# xmcd
#
# Track frame offsets: 
#        150
#        13339
#        28517
#        42421
#        55346
#        68969
#        80502
#        92708
#        105345
#        119298
#        133754
#        147754
#        162514
#        175812
#        190357
#        202849
#        216807
#        232646
#        246483
#        260391
#
# Disc length: 3671 seconds
#
# Revision: 3
# Processed by: cddbd v1.5.1PL0 Copyright (c) Steve Scherf et al.
# Submitted via: ExactAudioCopy v0.90b4
#
DISCID=190e5514
DTITLE=Various Artist - The Art Deco Music Collection [CD3]
DYEAR=2003
DGENRE=Jazz
TTITLE0=Marlene Dietrich - Falling in Love Again
TTITLE1=Al Bowlly - Love is the Sweetest Thing
TTITLE2=Hutch - Begin the Beguine
TTITLE3=Carroll Gibbons - Isn't it Romantic
TTITLE4=Lew Stone and His Band - The Continental
TTITLE5=Charles Trenet - Boum
TTITLE6=Josephine Baker - Si, J'etais Blance
TTITLE7=Mistinguett - C'est Vrai?
TTITLE8=Jean Sablon /Vous Qui Passe sans Me Voir
TTITLE9=Josephine Baker - J'ai Deux Amour
TTITLE10=Mistinguett - Je Cherche un Millionaire
TTITLE11=Josephine Baker /Haiti
TTITLE12=Carroll Gibbons - There's a Small Hotel
TTITLE13=Gertrude Lawrence - Mad About the Boy
TTITLE14=Noel Coward - Dance Little Lady
TTITLE15=Gertrude Lawrence - Someday I'll Find You
TTITLE16=Hutch - Let's Do It
TTITLE17=Jimmy Messene - Sophisticated Lady
TTITLE18=Nat Gonella - Stardust
TTITLE19=Al Bowlly - Goodnight Sweetheart
EXTD=
EXTT0=
EXTT1=
EXTT2=
EXTT3=
EXTT4=
EXTT5=
EXTT6=
EXTT7=
EXTT8=
EXTT9=
EXTT10=
EXTT11=
EXTT12=
EXTT13=
EXTT14=
EXTT15=
EXTT16=
EXTT17=
EXTT18=
EXTT19=
PLAYORDER=
